HIERARCHY
ROOT pelvis
{
  OFFSET 0.181838 -26.641924 2.013742
  CHANNELS 6 Xposition Yposition Zposition Zrotation Yrotation Xrotation
  JOINT left_hip
  {
    OFFSET 6.420887 -9.265385 -2.291165
    CHANNELS 3 Zrotation Yrotation Xrotation
    JOINT left_knee
    {
      OFFSET 4.829535 -42.424476 0.937445
      CHANNELS 3 Zrotation Yrotation Xrotation
      JOINT left_ankle
      {
        OFFSET -1.600232 -46.824226 -4.092603
        CHANNELS 3 Zrotation Yrotation Xrotation
        JOINT left_foot
        {
          OFFSET 4.929668 -6.733517 13.412784
          CHANNELS 3 Zrotation Yrotation Xrotation
          End Site
          {
            OFFSET 0.000000 0.000000 0.000000
          }
        }
      }
    }
  }
  JOINT right_hip
  {
    OFFSET -6.492824 -10.010968 -1.952781
    CHANNELS 3 Zrotation Yrotation Xrotation
    JOINT right_knee
    {
      OFFSET -5.039100 -42.448609 -0.653631
      CHANNELS 3 Zrotation Yrotation Xrotation
      JOINT right_ankle
      {
        OFFSET 2.179444 -46.491981 -3.805516
        CHANNELS 3 Zrotation Yrotation Xrotation
        JOINT right_foot
        {
          OFFSET -4.252404 -6.956109 14.428835
          CHANNELS 3 Zrotation Yrotation Xrotation
          End Site
          {
            OFFSET 0.000000 0.000000 0.000000
          }
        }
      }
    }
  }
  JOINT spine1
  {
    OFFSET 0.435145 13.839211 -3.630818
    CHANNELS 3 Zrotation Yrotation Xrotation
    JOINT spine2
    {
      OFFSET 0.343761 15.588624 3.402218
      CHANNELS 3 Zrotation Yrotation Xrotation
      JOINT spine3
      {
        OFFSET -0.371286 6.148425 0.564505
        CHANNELS 3 Zrotation Yrotation Xrotation
        JOINT neck
        {
          OFFSET -1.634386 22.948153 -3.298267
          CHANNELS 3 Zrotation Yrotation Xrotation
          JOINT head
          {
            OFFSET 1.028768 9.382157 6.139421
            CHANNELS 3 Zrotation Yrotation Xrotation
            End Site
            {
              OFFSET 0.000000 0.000000 0.000000
            }
          }
        }
        JOINT left_collar
        {
          OFFSET 7.685823 12.324401 -2.373022
          CHANNELS 3 Zrotation Yrotation Xrotation
          JOINT left_shoulder
          {
            OFFSET 12.931292 5.246330 -1.926808
            CHANNELS 3 Zrotation Yrotation Xrotation
            JOINT left_elbow
            {
              OFFSET 29.195313 -2.161876 -2.258029
              CHANNELS 3 Zrotation Yrotation Xrotation
              End Site
              {
                OFFSET 29.087969 1.565127 -0.710038
              }
            }
          }
        }
        JOINT right_collar
        {
          OFFSET -9.194624 12.359107 -2.780164
          CHANNELS 3 Zrotation Yrotation Xrotation
          JOINT right_shoulder
          {
            OFFSET -12.145171 5.608093 -0.527714
            CHANNELS 3 Zrotation Yrotation Xrotation
            JOINT right_elbow
            {
              OFFSET -29.378825 -2.146991 -3.149714
              CHANNELS 3 Zrotation Yrotation Xrotation
              End Site
              {
                OFFSET -29.867520 1.127055 -0.601422
              }
            }
          }
        }
      }
    }
  }
}
MOTION
Frames: 19
Frame Time: 0.008333
5.393347 98.222563 17.400840 -176.727527 4.547960 173.754409 3.746943 -7.325151 -20.585366 -7.745364 -0.229298 47.306789 1.015190 24.265640 -17.400021 0.000000 0.000000 0.000000 3.258106 4.740503 -20.688968 8.675587 1.515165 46.586457 -0.330014 -13.381369 -23.135245 0.000000 0.000000 0.000000 3.504629 1.663260 18.691795 -1.299241 -3.202582 2.773430 3.351590 3.955332 1.822144 -8.739959 2.165658 11.428124 8.488792 5.313171 -13.540193 19.255298 -39.980271 -23.107805 -12.412855 -44.523764 -10.827333 11.820384 -8.408718 4.933784 -24.633786 39.238118 -24.249850 13.730210 41.311745 -14.488674 -12.519913 15.075124 -4.291385
5.443460 97.356077 17.542596 -176.742379 4.476890 173.709974 3.957510 -7.533203 -21.904059 -7.881598 0.436254 49.452749 0.935221 24.466781 -17.967380 0.000000 0.000000 0.000000 3.024014 4.846216 -21.948155 8.979802 0.906313 48.743599 -0.384492 -13.472874 -23.919131 0.000000 0.000000 0.000000 3.530322 1.523375 19.563975 -1.434871 -3.146174 2.597959 3.338847 3.950183 2.030792 -8.746867 2.122455 11.005115 8.637786 5.391738 -14.176691 19.777639 -39.861526 -23.452084 -12.054670 -44.475559 -11.065505 11.761144 -8.435390 4.932680 -25.324275 39.060814 -24.659030 13.210573 41.050460 -14.722201 -12.367654 15.443728 -3.778332
5.492419 96.457098 17.677950 -176.757464 4.395909 173.656415 4.176344 -7.719748 -23.247761 -7.982488 1.111514 51.637208 0.819435 24.616522 -18.509017 0.000000 0.000000 0.000000 2.790672 4.953443 -23.205903 9.244632 0.288507 50.906182 -0.429830 -13.582205 -24.696630 0.000000 0.000000 0.000000 3.541992 1.377839 20.433451 -1.563393 -3.107303 2.418747 3.344013 3.932172 2.247401 -8.780677 2.060882 10.642066 8.755281 5.512537 -14.879827 20.249538 -39.757204 -23.739069 -11.647359 -44.408859 -11.395666 11.747757 -8.463369 4.942539 -25.953023 38.933710 -24.945283 12.596928 40.823951 -15.110834 -12.270172 15.779097 -3.338295
5.541561 95.528850 17.810491 -176.777895 4.287278 173.602178 4.413246 -7.925416 -24.633889 -8.080542 1.797623 53.857480 0.708021 24.743035 -18.981296 0.000000 0.000000 0.000000 2.533694 5.054808 -24.470707 9.472445 -0.363895 53.061702 -0.474197 -13.679144 -25.423021 0.000000 0.000000 0.000000 3.554161 1.239944 21.282142 -1.683256 -3.087544 2.264769 3.359182 3.903833 2.450144 -8.868281 1.950128 10.373530 8.855661 5.657279 -15.688957 20.679233 -39.705551 -23.959679 -11.178070 -44.302149 -11.833230 11.818784 -8.512455 4.964986 -26.578328 38.821305 -25.210796 12.023564 40.606097 -15.596465 -12.217230 16.095571 -2.994777
5.587905 94.571410 17.947026 -176.806655 4.162817 173.558515 4.664668 -8.132468 -26.071645 -8.155819 2.508622 56.101128 0.566755 24.839959 -19.419395 0.000000 0.000000 0.000000 2.243654 5.177888 -25.777871 9.662101 -1.070032 55.240348 -0.499701 -13.759561 -26.119321 0.000000 0.000000 0.000000 3.537548 1.095990 22.150047 -1.784023 -3.083647 2.085911 3.392706 3.859932 2.633700 -9.003793 1.827972 10.193313 8.967024 5.837579 -16.600987 21.121094 -39.607656 -24.152200 -10.746832 -44.198207 -12.291225 11.940502 -8.555373 5.020980 -27.160328 38.710634 -25.440375 11.456594 40.492016 -16.162579 -12.173094 16.307254 -2.783794
5.631573 93.590881 18.086617 -176.829142 4.040728 173.515693 4.951643 -8.347102 -27.557194 -8.243083 3.237482 58.394740 0.436584 24.936279 -19.781236 0.000000 0.000000 0.000000 1.952779 5.301659 -27.109885 9.820246 -1.781185 57.439786 -0.498789 -13.820541 -26.776367 0.000000 0.000000 0.000000 3.520622 0.959039 23.014820 -1.867953 -3.089211 1.922894 3.441684 3.812421 2.800191 -9.178931 1.681125 10.102725 9.049350 6.052502 -17.616820 21.529111 -39.499870 -24.310270 -10.295999 -44.079315 -12.804714 12.069359 -8.641747 5.093151 -27.751303 38.610547 -25.689073 10.935599 40.410576 -16.769755 -12.129829 16.460651 -2.651850
5.675592 92.593721 18.226410 -176.854110 3.888190 173.457403 5.241478 -8.541633 -29.068766 -8.302063 3.951072 60.721820 0.291793 24.987311 -20.065602 0.000000 0.000000 0.000000 1.628716 5.406540 -28.431930 9.931894 -2.544537 59.625750 -0.497671 -13.852760 -27.390585 0.000000 0.000000 0.000000 3.482689 0.812243 23.865284 -1.931889 -3.119548 1.793405 3.504998 3.748125 3.000133 -9.405940 1.542582 10.085304 9.147397 6.301140 -18.806352 21.941696 -39.361957 -24.454546 -9.816338 -43.960920 -13.390160 12.206895 -8.719566 5.155796 -28.299656 38.521710 -25.923358 10.374105 40.404863 -17.497607 -12.091180 16.543526 -2.641112
5.714036 91.568215 18.361740 -176.898659 3.742462 173.426924 5.556739 -8.754933 -30.652104 -8.367108 4.720055 63.079792 0.181962 25.036856 -20.241674 0.000000 0.000000 0.000000 1.274267 5.509879 -29.822328 9.991218 -3.322208 61.853815 -0.528441 -13.892016 -27.917950 0.000000 0.000000 0.000000 3.418059 0.693520 24.752105 -1.979445 -3.146966 1.583762 3.588735 3.678381 3.114613 -9.633242 1.383531 10.168848 9.208552 6.541578 -19.957189 22.354754 -39.249122 -24.558127 -9.441825 -43.811516 -13.870595 12.338030 -8.793074 5.201927 -28.827085 38.453794 -26.122870 9.954446 40.384255 -18.087403 -12.094465 16.608911 -2.707622
5.747874 90.528362 18.490938 -176.935707 3.586365 173.397008 5.907545 -8.962226 -32.255482 -8.478356 5.494044 65.432598 0.090575 25.107376 -20.359406 0.000000 0.000000 0.000000 0.893105 5.591754 -31.226293 10.037306 -4.105925 64.100350 -0.544367 -13.871631 -28.382168 0.000000 0.000000 0.000000 3.346343 0.560668 25.631174 -2.004791 -3.188886 1.381524 3.668870 3.614331 3.214853 -9.867540 1.206248 10.283754 9.264368 6.793042 -21.131183 22.745901 -39.110439 -24.604239 -9.070043 -43.663283 -14.327865 12.412809 -8.863921 5.278190 -29.329026 38.408696 -26.305476 9.560238 40.379797 -18.651033 -12.101248 16.640296 -2.770455
5.775821 89.473748 18.609936 -176.985840 3.408050 173.362321 6.256167 -9.166878 -33.872974 -8.649370 6.245868 67.772717 -0.024483 25.221422 -20.440550 0.000000 0.000000 0.000000 0.469821 5.624637 -32.643328 10.094833 -4.865718 66.377506 -0.554435 -13.805622 -28.792908 0.000000 0.000000 0.000000 3.254781 0.438711 26.490171 -2.005693 -3.248888 1.194996 3.759650 3.548870 3.294410 -10.138266 1.040601 10.480270 9.322494 7.054148 -22.355023 23.135827 -38.986768 -24.597434 -8.682277 -43.489614 -14.786997 12.422759 -8.920621 5.341513 -29.802200 38.388708 -26.468229 9.185636 40.359054 -19.187648 -12.092240 16.651822 -2.770499
5.792656 88.408567 18.721876 -177.035939 3.237846 173.332202 6.625484 -9.355306 -35.495891 -8.861208 6.993386 70.099039 -0.156204 25.312908 -20.523894 0.000000 0.000000 0.000000 0.017611 5.644657 -34.077612 10.161199 -5.593929 68.675728 -0.531116 -13.662506 -29.130120 0.000000 0.000000 0.000000 3.152245 0.321663 27.326524 -1.981025 -3.312566 1.000061 3.857156 3.496535 3.389539 -10.408285 0.888913 10.692558 9.371604 7.291891 -23.568498 23.511820 -38.852997 -24.591764 -8.330286 -43.312311 -15.173160 12.349039 -8.985624 5.378275 -30.232060 38.398471 -26.641350 8.810286 40.304383 -19.643897 -12.041728 16.663093 -2.740018
5.794574 87.326512 18.816021 -177.083719 3.061142 173.298086 7.021190 -9.533362 -37.105617 -9.099029 7.740000 72.396233 -0.343613 25.328622 -20.643778 0.000000 0.000000 0.000000 -0.469498 5.624483 -35.512468 10.229551 -6.336655 70.988367 -0.461125 -13.463596 -29.459283 0.000000 0.000000 0.000000 3.059928 0.193474 28.129394 -1.935531 -3.372941 0.830416 3.938194 3.450620 3.467044 -10.713107 0.720882 10.933498 9.421733 7.514373 -24.794729 23.887924 -38.702372 -24.491094 -7.966026 -43.151395 -15.599702 12.254351 -9.072945 5.362486 -30.619164 38.408548 -26.752390 8.407685 40.266595 -20.107246 -11.983367 16.652608 -2.607431
5.779859 86.238382 18.896286 -177.137685 2.878065 173.257343 7.408361 -9.684720 -38.700025 -9.312488 8.471838 74.676114 -0.561535 25.280433 -20.767922 0.000000 0.000000 0.000000 -0.992145 5.559201 -36.926122 10.299107 -7.067523 73.281696 -0.375712 -13.180408 -29.769292 0.000000 0.000000 0.000000 2.974503 0.074077 28.907498 -1.887796 -3.437798 0.704583 4.021344 3.409791 3.490640 -11.019128 0.575272 11.183004 9.501937 7.697813 -25.950817 24.124627 -38.638961 -24.343821 -7.520160 -43.007085 -16.063205 12.124340 -9.105866 5.295248 -30.950943 38.487113 -26.832619 7.996252 40.169243 -20.560363 -11.922662 16.634791 -2.487608
5.753778 85.134332 18.966099 -177.176045 2.700176 173.182030 7.817100 -9.799425 -40.243163 -9.435054 9.201043 76.957519 -0.761530 25.101099 -20.906378 0.000000 0.000000 0.000000 -1.524023 5.469626 -38.312068 10.358589 -7.805989 75.590771 -0.298079 -12.847104 -30.033061 0.000000 0.000000 0.000000 2.904920 -0.062846 29.752482 -1.825881 -3.499059 0.595755 4.085524 3.372915 3.432307 -11.268472 0.475613 11.325817 9.541574 7.821825 -26.977230 24.352398 -38.553370 -24.250729 -7.185059 -42.878472 -16.414840 12.057303 -9.154682 5.183962 -31.247478 38.545268 -26.905231 7.580979 40.119342 -20.922381 -11.859284 16.596763 -2.383529
5.714253 84.015576 19.036559 -177.198987 2.532022 173.057015 8.229581 -9.845409 -41.722793 -9.520585 9.896887 79.240714 -0.950338 24.801987 -21.046560 0.000000 0.000000 0.000000 -2.053081 5.338970 -39.666875 10.419426 -8.541189 77.920943 -0.223599 -12.452356 -30.238525 0.000000 0.000000 0.000000 2.856626 -0.215969 30.722056 -1.758966 -3.541768 0.512842 4.124404 3.331037 3.247243 -11.413449 0.460289 11.170095 9.545927 7.817334 -27.693679 24.642101 -38.418915 -24.217390 -6.982059 -42.779631 -16.610907 12.107300 -9.191733 4.965441 -31.557203 38.565892 -26.993040 7.167688 40.086158 -21.132826 -11.793622 16.543206 -2.327973
5.668953 82.863750 19.101212 -177.221880 2.372801 172.917350 8.689310 -9.834770 -43.192418 -9.664565 10.619936 81.521750 -1.098240 24.416214 -21.228303 0.000000 0.000000 0.000000 -2.611767 5.194355 -41.045751 10.491211 -9.284951 80.304237 -0.173271 -12.006696 -30.438909 0.000000 0.000000 0.000000 2.801655 -0.360377 31.683772 -1.682894 -3.573298 0.484974 4.144443 3.279955 3.020743 -11.443008 0.471512 10.747129 9.505962 7.741647 -28.071847 25.007124 -38.237232 -24.270087 -6.902714 -42.699502 -16.718511 12.222358 -9.264001 4.711292 -31.829857 38.526013 -27.097351 6.759158 40.122581 -21.276452 -11.714483 16.461823 -2.362268
5.619963 81.679005 19.166855 -177.254346 2.225427 172.796821 9.202506 -9.775240 -44.678680 -9.902651 11.373888 83.766621 -1.201491 23.984873 -21.429853 0.000000 0.000000 0.000000 -3.216926 5.031575 -42.492614 10.552464 -10.043889 82.723330 -0.116790 -11.504966 -30.583796 0.000000 0.000000 0.000000 2.754541 -0.518050 32.576240 -1.628718 -3.599798 0.463566 4.145764 3.232244 2.821743 -11.456028 0.488042 10.308188 9.464647 7.659705 -28.381400 25.337932 -38.120341 -24.282521 -6.732638 -42.548949 -16.848276 12.362243 -9.361938 4.436334 -32.143070 38.527849 -27.213646 6.320398 40.086584 -21.463104 -11.602342 16.409422 -2.409967
5.572836 80.469838 19.220984 -177.304192 2.081561 172.668113 9.740300 -9.690996 -46.133746 -10.207829 12.147774 85.977749 -1.313629 23.472155 -21.696689 0.000000 0.000000 0.000000 -3.882501 4.853631 -43.953375 10.591188 -10.818629 85.167450 -0.044917 -10.897101 -30.704887 0.000000 0.000000 0.000000 2.683458 -0.651144 33.388531 -1.573646 -3.631765 0.457296 4.159303 3.181016 2.679524 -11.511003 0.520114 10.068864 9.469431 7.648645 -28.821444 25.597140 -38.083225 -24.235320 -6.429698 -42.373451 -17.062755 12.487051 -9.433873 4.152606 -32.393353 38.588993 -27.291820 5.767248 40.005294 -21.766779 -11.420156 16.337130 -2.456802
5.531354 79.258805 19.263301 -177.340070 1.940280 172.540974 10.287375 -9.578149 -47.552320 -10.572502 12.873897 88.133583 -1.355553 22.928890 -21.954198 0.000000 0.000000 0.000000 -4.544037 4.666867 -45.396534 10.637476 -11.550984 87.565090 0.084011 -10.208223 -30.773245 0.000000 0.000000 0.000000 2.619188 -0.789060 34.115350 -1.520201 -3.674748 0.456270 4.186600 3.148211 2.584779 -11.660401 0.564511 10.091650 9.522679 7.709699 -29.444968 25.733082 -38.178018 -24.086035 -5.995074 -42.132699 -17.431676 12.600458 -9.484715 3.880051 -32.579462 38.778368 -27.271380 5.152046 39.874059 -22.272136 -11.283054 16.251458 -2.498658
